<svg width="100%" viewBox="0 0 680 820" xmlns="http://www.w3.org/2000/svg" style="font-family: sans-serif; background: white;">
  <defs>
    <marker id="arrow" viewBox="0 0 10 10" refX="8" refY="5" markerWidth="6" markerHeight="6" orient="auto-start-reverse">
      <path d="M2 1L8 5L2 9" fill="none" stroke="#888" stroke-width="1.5" stroke-linecap="round" stroke-linejoin="round"/>
    </marker>
  </defs>

  <!-- Title -->
  <text x="340" y="30" text-anchor="middle" font-size="16" font-weight="500" fill="#1a1a1a">FocusFlow — app architecture</text>

  <!-- Layer labels -->
  <text x="40" y="60" font-size="12" fill="#888">Pages &amp; views</text>

  <!-- Pages -->
  <rect x="40" y="70" width="110" height="52" rx="8" fill="#EEEDFE" stroke="#534AB7" stroke-width="0.5"/>
  <text x="95" y="91" text-anchor="middle" font-size="14" font-weight="500" fill="#3C3489">Dashboard</text>
  <text x="95" y="109" text-anchor="middle" font-size="12" fill="#534AB7">Overview + stats</text>

  <rect x="165" y="70" width="110" height="52" rx="8" fill="#EEEDFE" stroke="#534AB7" stroke-width="0.5"/>
  <text x="220" y="91" text-anchor="middle" font-size="14" font-weight="500" fill="#3C3489">Tasks</text>
  <text x="220" y="109" text-anchor="middle" font-size="12" fill="#534AB7">CRUD + filters</text>

  <rect x="290" y="70" width="110" height="52" rx="8" fill="#EEEDFE" stroke="#534AB7" stroke-width="0.5"/>
  <text x="345" y="91" text-anchor="middle" font-size="14" font-weight="500" fill="#3C3489">Pomodoro</text>
  <text x="345" y="109" text-anchor="middle" font-size="12" fill="#534AB7">Focus timer</text>

  <rect x="415" y="70" width="110" height="52" rx="8" fill="#EEEDFE" stroke="#534AB7" stroke-width="0.5"/>
  <text x="470" y="91" text-anchor="middle" font-size="14" font-weight="500" fill="#3C3489">Habits</text>
  <text x="470" y="109" text-anchor="middle" font-size="12" fill="#534AB7">Daily streaks</text>

  <rect x="540" y="70" width="110" height="52" rx="8" fill="#EEEDFE" stroke="#534AB7" stroke-width="0.5"/>
  <text x="595" y="91" text-anchor="middle" font-size="14" font-weight="500" fill="#3C3489">Calendar</text>
  <text x="595" y="109" text-anchor="middle" font-size="12" fill="#534AB7">Deadlines view</text>

  <line x1="340" y1="122" x2="340" y2="155" stroke="#ccc" stroke-width="1.5" marker-end="url(#arrow)"/>

  <!-- Core modules label -->
  <text x="40" y="170" font-size="12" fill="#888">Core modules</text>

  <rect x="40" y="180" width="175" height="100" rx="8" fill="#E1F5EE" stroke="#0F6E56" stroke-width="0.5"/>
  <text x="127" y="203" text-anchor="middle" font-size="14" font-weight="500" fill="#085041">Task engine</text>
  <text x="127" y="222" text-anchor="middle" font-size="12" fill="#0F6E56">Create / edit / delete</text>
  <text x="127" y="238" text-anchor="middle" font-size="12" fill="#0F6E56">Priority + tags</text>
  <text x="127" y="254" text-anchor="middle" font-size="12" fill="#0F6E56">Subtasks + status</text>

  <rect x="240" y="180" width="175" height="100" rx="8" fill="#E1F5EE" stroke="#0F6E56" stroke-width="0.5"/>
  <text x="327" y="203" text-anchor="middle" font-size="14" font-weight="500" fill="#085041">Pomodoro engine</text>
  <text x="327" y="222" text-anchor="middle" font-size="12" fill="#0F6E56">Focus / break cycles</text>
  <text x="327" y="238" text-anchor="middle" font-size="12" fill="#0F6E56">Custom durations</text>
  <text x="327" y="254" text-anchor="middle" font-size="12" fill="#0F6E56">Session history</text>

  <rect x="440" y="180" width="200" height="100" rx="8" fill="#FAECE7" stroke="#993C1D" stroke-width="0.5"/>
  <text x="540" y="203" text-anchor="middle" font-size="14" font-weight="500" fill="#712B13">AI assistant</text>
  <text x="540" y="222" text-anchor="middle" font-size="12" fill="#993C1D">Task breakdown</text>
  <text x="540" y="238" text-anchor="middle" font-size="12" fill="#993C1D">Smart suggestions</text>
  <text x="540" y="254" text-anchor="middle" font-size="12" fill="#993C1D">Claude API (Sonnet)</text>

  <line x1="340" y1="280" x2="340" y2="315" stroke="#ccc" stroke-width="1.5" marker-end="url(#arrow)"/>

  <!-- Data & state label -->
  <text x="40" y="330" font-size="12" fill="#888">Data &amp; state</text>

  <rect x="40" y="340" width="175" height="90" rx="8" fill="#E6F1FB" stroke="#185FA5" stroke-width="0.5"/>
  <text x="127" y="362" text-anchor="middle" font-size="14" font-weight="500" fill="#0C447C">Analytics</text>
  <text x="127" y="380" text-anchor="middle" font-size="12" fill="#185FA5">Focus time charts</text>
  <text x="127" y="396" text-anchor="middle" font-size="12" fill="#185FA5">Task completion rate</text>

  <rect x="240" y="340" width="175" height="90" rx="8" fill="#E6F1FB" stroke="#185FA5" stroke-width="0.5"/>
  <text x="327" y="362" text-anchor="middle" font-size="14" font-weight="500" fill="#0C447C">Habits &amp; streaks</text>
  <text x="327" y="380" text-anchor="middle" font-size="12" fill="#185FA5">Daily check-ins</text>
  <text x="327" y="396" text-anchor="middle" font-size="12" fill="#185FA5">Streak tracker</text>

  <rect x="440" y="340" width="200" height="90" rx="8" fill="#E6F1FB" stroke="#185FA5" stroke-width="0.5"/>
  <text x="540" y="362" text-anchor="middle" font-size="14" font-weight="500" fill="#0C447C">Archive</text>
  <text x="540" y="380" text-anchor="middle" font-size="12" fill="#185FA5">Done tasks + history</text>
  <text x="540" y="396" text-anchor="middle" font-size="12" fill="#185FA5">Filter / restore</text>

  <line x1="340" y1="430" x2="340" y2="465" stroke="#ccc" stroke-width="1.5" marker-end="url(#arrow)"/>

  <!-- State management label -->
  <text x="40" y="480" font-size="12" fill="#888">State management</text>

  <rect x="40" y="490" width="175" height="56" rx="8" fill="#FAEEDA" stroke="#854F0B" stroke-width="0.5"/>
  <text x="127" y="511" text-anchor="middle" font-size="14" font-weight="500" fill="#633806">Zustand stores</text>
  <text x="127" y="529" text-anchor="middle" font-size="12" fill="#854F0B">Tasks, timer, habits</text>

  <rect x="240" y="490" width="175" height="56" rx="8" fill="#FAEEDA" stroke="#854F0B" stroke-width="0.5"/>
  <text x="327" y="511" text-anchor="middle" font-size="14" font-weight="500" fill="#633806">React Query</text>
  <text x="327" y="529" text-anchor="middle" font-size="12" fill="#854F0B">Cache + sync</text>

  <rect x="440" y="490" width="200" height="56" rx="8" fill="#FAEEDA" stroke="#854F0B" stroke-width="0.5"/>
  <text x="540" y="511" text-anchor="middle" font-size="14" font-weight="500" fill="#633806">Mock API (MSW)</text>
  <text x="540" y="529" text-anchor="middle" font-size="12" fill="#854F0B">Swap → MongoDB later</text>

  <line x1="340" y1="546" x2="340" y2="580" stroke="#ccc" stroke-width="1.5" marker-end="url(#arrow)"/>

  <!-- Tech stack label -->
  <text x="40" y="598" font-size="12" fill="#888">Tech stack</text>

  <rect x="40" y="608" width="600" height="56" rx="8" fill="#F1EFE8" stroke="#5F5E5A" stroke-width="0.5"/>
  <text x="340" y="629" text-anchor="middle" font-size="14" font-weight="500" fill="#2C2C2A">React 19 + Vite · TypeScript · Tailwind CSS v4 · shadcn/ui</text>
  <text x="340" y="647" text-anchor="middle" font-size="12" fill="#5F5E5A">Recharts · Day.js · Framer Motion · Claude API</text>

  <!-- Build order label -->
  <text x="40" y="690" font-size="12" fill="#888">Build order</text>

  <rect x="40" y="700" width="176" height="52" rx="8" fill="#EAF3DE" stroke="#3B6D11" stroke-width="0.5"/>
  <text x="128" y="720" text-anchor="middle" font-size="14" font-weight="500" fill="#27500A">Phase 1</text>
  <text x="128" y="738" text-anchor="middle" font-size="12" fill="#3B6D11">Tasks + Pomodoro core</text>

  <line x1="216" y1="726" x2="238" y2="726" stroke="#888" stroke-width="1.5" marker-end="url(#arrow)"/>

  <rect x="240" y="700" width="176" height="52" rx="8" fill="#EAF3DE" stroke="#3B6D11" stroke-width="0.5"/>
  <text x="328" y="720" text-anchor="middle" font-size="14" font-weight="500" fill="#27500A">Phase 2</text>
  <text x="328" y="738" text-anchor="middle" font-size="12" fill="#3B6D11">Habits + Analytics</text>

  <line x1="416" y1="726" x2="438" y2="726" stroke="#888" stroke-width="1.5" marker-end="url(#arrow)"/>

  <rect x="440" y="700" width="200" height="52" rx="8" fill="#EAF3DE" stroke="#3B6D11" stroke-width="0.5"/>
  <text x="540" y="720" text-anchor="middle" font-size="14" font-weight="500" fill="#27500A">Phase 3</text>
  <text x="540" y="738" text-anchor="middle" font-size="12" fill="#3B6D11">AI + Calendar + Archive</text>
</svg>
